<?xml version="1.0" encoding="UTF-8"?>
<svg version="1.1" xmlns="http://www.w3.org/2000/svg" width="104" height="104">
<path d="M0 0 C13.2 0 26.4 0 40 0 C40 1.32 40 2.64 40 4 C42.64 4 45.28 4 48 4 C48 5.32 48 6.64 48 8 C49.32 8 50.64 8 52 8 C52 9.32 52 10.64 52 12 C53.32 12 54.64 12 56 12 C56 13.32 56 14.64 56 16 C57.32 16 58.64 16 60 16 C60 17.32 60 18.64 60 20 C61.32 20 62.64 20 64 20 C64 21.32 64 22.64 64 24 C65.32 24 66.64 24 68 24 C68 29.28 68 34.56 68 40 C65.36 40 62.72 40 60 40 C60 42.64 60 45.28 60 48 C61.32 48 62.64 48 64 48 C64 50.64 64 53.28 64 56 C60.04 56 56.08 56 52 56 C52 53.36 52 50.72 52 48 C53.32 48 54.64 48 56 48 C56 45.36 56 42.72 56 40 C52.04 40 48.08 40 44 40 C44 43.96 44 47.92 44 52 C45.32 52 46.64 52 48 52 C48 54.64 48 57.28 48 60 C44.04 60 40.08 60 36 60 C36 63.96 36 67.92 36 72 C37.32 72 38.64 72 40 72 C40 75.96 40 79.92 40 84 C41.32 84 42.64 84 44 84 C44 89.28 44 94.56 44 100 C42.68 100 41.36 100 40 100 C40 101.32 40 102.64 40 104 C33.4 104 26.8 104 20 104 C20 102.68 20 101.36 20 100 C17.36 100 14.72 100 12 100 C12 82.84 12 65.68 12 48 C9.36 48 6.72 48 4 48 C4 50.64 4 53.28 4 56 C5.32 56 6.64 56 8 56 C8 58.64 8 61.28 8 64 C5.36 64 2.72 64 0 64 C0 60.04 0 56.08 0 52 C-1.32 52 -2.64 52 -4 52 C-4 53.32 -4 54.64 -4 56 C-6.64 56 -9.28 56 -12 56 C-12 61.28 -12 66.56 -12 72 C-10.68 72 -9.36 72 -8 72 C-8 75.96 -8 79.92 -8 84 C-11.96 84 -15.92 84 -20 84 C-20 80.04 -20 76.08 -20 72 C-18.68 72 -17.36 72 -16 72 C-16 69.36 -16 66.72 -16 64 C-21.28 64 -26.56 64 -32 64 C-32 62.68 -32 61.36 -32 60 C-33.32 60 -34.64 60 -36 60 C-36 56.04 -36 52.08 -36 48 C-34.68 48 -33.36 48 -32 48 C-32 46.68 -32 45.36 -32 44 C-30.68 44 -29.36 44 -28 44 C-28 38.72 -28 33.44 -28 28 C-26.68 28 -25.36 28 -24 28 C-24 25.36 -24 22.72 -24 20 C-22.68 20 -21.36 20 -20 20 C-20 18.68 -20 17.36 -20 16 C-18.68 16 -17.36 16 -16 16 C-16 14.68 -16 13.36 -16 12 C-14.68 12 -13.36 12 -12 12 C-12 10.68 -12 9.36 -12 8 C-10.68 8 -9.36 8 -8 8 C-8 6.68 -8 5.36 -8 4 C-5.36 4 -2.72 4 0 4 C0 2.68 0 1.36 0 0 Z M28 40 C28 43.96 28 47.92 28 52 C29.32 52 30.64 52 32 52 C32 54.64 32 57.28 32 60 C33.32 60 34.64 60 36 60 C36 57.36 36 54.72 36 52 C37.32 52 38.64 52 40 52 C40 48.04 40 44.08 40 40 C36.04 40 32.08 40 28 40 Z " fill="#918BBF" transform="translate(36,0)"/>
<path d="M0 0 C1.32 0 2.64 0 4 0 C4 6.6 4 13.2 4 20 C5.32 20 6.64 20 8 20 C8 22.64 8 25.28 8 28 C9.32 28 10.64 28 12 28 C12 31.96 12 35.92 12 40 C13.32 40 14.64 40 16 40 C16 43.96 16 47.92 16 52 C17.32 52 18.64 52 20 52 C20 57.28 20 62.56 20 68 C18.68 68 17.36 68 16 68 C16 69.32 16 70.64 16 72 C9.4 72 2.8 72 -4 72 C-4 70.68 -4 69.36 -4 68 C-6.64 68 -9.28 68 -12 68 C-12 46.88 -12 25.76 -12 4 C-8.04 4 -4.08 4 0 4 C0 2.68 0 1.36 0 0 Z " fill="#978684" transform="translate(60,32)"/>
<path d="M0 0 C13.2 0 26.4 0 40 0 C40 1.32 40 2.64 40 4 C42.64 4 45.28 4 48 4 C48 5.32 48 6.64 48 8 C49.32 8 50.64 8 52 8 C52 9.32 52 10.64 52 12 C50.68 12 49.36 12 48 12 C48 13.32 48 14.64 48 16 C44.04 16 40.08 16 36 16 C36 14.68 36 13.36 36 12 C34.68 12 33.36 12 32 12 C32 10.68 32 9.36 32 8 C30.68 8 29.36 8 28 8 C28 9.32 28 10.64 28 12 C24.04 12 20.08 12 16 12 C16 13.32 16 14.64 16 16 C13.36 16 10.72 16 8 16 C8 14.68 8 13.36 8 12 C6.68 12 5.36 12 4 12 C4 14.64 4 17.28 4 20 C1.36 20 -1.28 20 -4 20 C-4 23.96 -4 27.92 -4 32 C-7.96 32 -11.92 32 -16 32 C-16 33.32 -16 34.64 -16 36 C-17.32 36 -18.64 36 -20 36 C-20 37.32 -20 38.64 -20 40 C-22.64 40 -25.28 40 -28 40 C-28 36.04 -28 32.08 -28 28 C-26.68 28 -25.36 28 -24 28 C-24 25.36 -24 22.72 -24 20 C-22.68 20 -21.36 20 -20 20 C-20 18.68 -20 17.36 -20 16 C-18.68 16 -17.36 16 -16 16 C-16 14.68 -16 13.36 -16 12 C-14.68 12 -13.36 12 -12 12 C-12 10.68 -12 9.36 -12 8 C-10.68 8 -9.36 8 -8 8 C-8 6.68 -8 5.36 -8 4 C-5.36 4 -2.72 4 0 4 C0 2.68 0 1.36 0 0 Z " fill="#8C7B9B" transform="translate(36,0)"/>
<path d="M0 0 C2.64 0 5.28 0 8 0 C8 2.64 8 5.28 8 8 C6.68 8 5.36 8 4 8 C4 17.24 4 26.48 4 36 C5.32 36 6.64 36 8 36 C8 39.96 8 43.92 8 48 C9.32 48 10.64 48 12 48 C12 49.32 12 50.64 12 52 C13.32 52 14.64 52 16 52 C16 53.32 16 54.64 16 56 C17.32 56 18.64 56 20 56 C20 57.32 20 58.64 20 60 C21.32 60 22.64 60 24 60 C24 61.32 24 62.64 24 64 C25.32 64 26.64 64 28 64 C28 65.32 28 66.64 28 68 C21.4 68 14.8 68 8 68 C8 66.68 8 65.36 8 64 C5.36 64 2.72 64 0 64 C0 42.88 0 21.76 0 0 Z " fill="#5B5F6A" transform="translate(48,36)"/>
<path d="M0 0 C9.24 0 18.48 0 28 0 C28 2.64 28 5.28 28 8 C24.04 8 20.08 8 16 8 C16 11.96 16 15.92 16 20 C17.32 20 18.64 20 20 20 C20 22.64 20 25.28 20 28 C16.04 28 12.08 28 8 28 C8 25.36 8 22.72 8 20 C9.32 20 10.64 20 12 20 C12 16.04 12 12.08 12 8 C8.04 8 4.08 8 0 8 C0 5.36 0 2.72 0 0 Z " fill="#B4C2C1" transform="translate(64,32)"/>
<path d="M0 0 C2.64 0 5.28 0 8 0 C8 3.96 8 7.92 8 12 C5.36 12 2.72 12 0 12 C0 14.64 0 17.28 0 20 C1.32 20 2.64 20 4 20 C4 22.64 4 25.28 4 28 C1.36 28 -1.28 28 -4 28 C-4 24.04 -4 20.08 -4 16 C-5.32 16 -6.64 16 -8 16 C-8 17.32 -8 18.64 -8 20 C-10.64 20 -13.28 20 -16 20 C-16 17.36 -16 14.72 -16 12 C-14.68 12 -13.36 12 -12 12 C-12 10.68 -12 9.36 -12 8 C-10.68 8 -9.36 8 -8 8 C-8 6.68 -8 5.36 -8 4 C-5.36 4 -2.72 4 0 4 C0 2.68 0 1.36 0 0 Z " fill="#B4C2C1" transform="translate(40,36)"/>
<path d="M0 0 C2.64 0 5.28 0 8 0 C8 3.96 8 7.92 8 12 C6.68 12 5.36 12 4 12 C4 10.68 4 9.36 4 8 C1.36 8 -1.28 8 -4 8 C-4 6.68 -4 5.36 -4 4 C-2.68 4 -1.36 4 0 4 C0 2.68 0 1.36 0 0 Z " fill="#D2FFF7" transform="translate(40,36)"/>
<path d="M0 0 C5.28 0 10.56 0 16 0 C16 1.32 16 2.64 16 4 C13.36 4 10.72 4 8 4 C8 5.32 8 6.64 8 8 C5.36 8 2.72 8 0 8 C0 5.36 0 2.72 0 0 Z " fill="#D2FFF7" transform="translate(64,32)"/>
<path d="M0 0 C1.32 0 2.64 0 4 0 C4 2.64 4 5.28 4 8 C6.64 8 9.28 8 12 8 C12 9.32 12 10.64 12 12 C8.04 12 4.08 12 0 12 C0 8.04 0 4.08 0 0 Z " fill="#8C7B9B" transform="translate(16,72)"/>
<path d="M0 0 C1.32 0 2.64 0 4 0 C4 3.96 4 7.92 4 12 C2.68 12 1.36 12 0 12 C0 8.04 0 4.08 0 0 Z " fill="#B4C2C1" transform="translate(16,52)"/>
<path d="M0 0 C1.32 0 2.64 0 4 0 C4 1.32 4 2.64 4 4 C5.32 4 6.64 4 8 4 C8 5.32 8 6.64 8 8 C5.36 8 2.72 8 0 8 C0 5.36 0 2.72 0 0 Z " fill="#8C7B9B" transform="translate(88,48)"/>
</svg>
